<svg xmlns="http://www.w3.org/2000/svg" viewBox="0 0 512 512" fill="currentColor"><path d="M164.96 300.004h.024c.02 0 .04-.004.059-.004H437a15.003 15.003 0 0014.422-10.879l60-210a15.003 15.003 0 00-2.445-13.152A15.006 15.006 0 00497 60H130.367l-10.722-48.254A15.003 15.003 0 00105 0H15C6.715 0 0 6.715 0 15s6.715 15 15 15h77.969l56.422 253.879C131.137 297.652 120 316.258 120 337c0 30.328 24.672 55 55 55h10c0 28.988 23.512 52.5 52.5 52.5S290 420.988 290 392h72c0 28.988 23.512 52.5 52.5 52.5S467 420.988 467 392h15c8.285 0 15-6.715 15-15s-6.715-15-15-15H175c-13.785 0-25-11.215-25-25 0-11.293 7.559-20.82 17.879-23.828l-2.918-13.168zM237.5 414.5c-12.426 0-22.5-10.074-22.5-22.5s10.074-22.5 22.5-22.5S260 379.574 260 392s-10.074 22.5-22.5 22.5zm177 0c-12.426 0-22.5-10.074-22.5-22.5s10.074-22.5 22.5-22.5S437 379.574 437 392s-10.074 22.5-22.5 22.5zM142.133 90h340.727l-51.43 180H168.566L142.133 90z"/></svg>
